<?xml version="1.0" encoding="UTF-8"?>
<svg width="400" height="200" viewBox="0 0 400 200" fill="none" xmlns="http://www.w3.org/2000/svg">
  <!-- Car Body -->
  <path d="M100 120h200c10 0 20-5 25-15l25-40c5-10 0-25-10-30L300 20c-10-5-20-5-30 0L150 60c-10 5-20 5-30 0L80 40c-10-5-20-5-30 0L10 60C0 65-5 80 0 90l25 40c5 10 15 15 25 15z" fill="#F47521"/>
  
  <!-- Windows -->
  <path d="M150 80h100v30h-100z" fill="#87CEEB"/>
  
  <!-- Wheels -->
  <circle cx="120" cy="140" r="30" fill="#333"/>
  <circle cx="120" cy="140" r="15" fill="#666"/>
  <circle cx="280" cy="140" r="30" fill="#333"/>
  <circle cx="280" cy="140" r="15" fill="#666"/>
  
  <!-- Mechanics -->
  <g transform="translate(20, 80)">
    <!-- Mechanic 1 -->
    <circle cx="30" cy="40" r="15" fill="#4285F4"/> <!-- Head -->
    <rect x="20" y="55" width="20" height="30" fill="#4285F4"/> <!-- Body -->
    <rect x="15" y="85" width="10" height="20" fill="#4285F4"/> <!-- Legs -->
    <rect x="35" y="85" width="10" height="20" fill="#4285F4"/>
    
    <!-- Mechanic 2 -->
    <circle cx="330" cy="40" r="15" fill="#4285F4"/>
    <rect x="320" y="55" width="20" height="30" fill="#4285F4"/>
    <rect x="315" y="85" width="10" height="20" fill="#4285F4"/>
    <rect x="335" y="85" width="10" height="20" fill="#4285F4"/>
    
    <!-- Tools -->
    <rect x="50" y="60" width="30" height="5" fill="#666" transform="rotate(45)"/>
    <circle cx="300" cy="70" r="10" fill="#666"/>
  </g>
</svg> 